REM DIRINDEX 1\2,1\3,1\4,1\5
REM DIRNAME folder01,folder02,folder03,folder04,folder05
TITLE ""
FILE "Chapter_15.mp3" MP3
  TRACK 01 AUDIO
    TITLE "0:"
    INDEX 01 00:00:00
  TRACK 02 AUDIO
    TITLE "5:cjc087_4569"
    INDEX 01 00:00:07
  TRACK 03 AUDIO
    TITLE "0:"
    INDEX 01 00:01:71
  TRACK 04 AUDIO
    TITLE "5:cjc087_4570"
    INDEX 01 00:03:33
  TRACK 05 AUDIO
    TITLE "0:"
    INDEX 01 00:05:44
  TRACK 06 AUDIO
    TITLE "4:cjc087_4571"
    INDEX 01 00:06:41
  TRACK 07 AUDIO
    TITLE "3:cjc087_4572"
    INDEX 01 00:08:28
  TRACK 08 AUDIO
    TITLE "0:"
    INDEX 01 00:10:29
  TRACK 09 AUDIO
    TITLE "4:cjc087_4573"
    INDEX 01 00:11:27
  TRACK 10 AUDIO
    TITLE "3:cjc087_4574"
    INDEX 01 00:13:20
  TRACK 11 AUDIO
    TITLE "0:"
    INDEX 01 00:15:64
  TRACK 12 AUDIO
    TITLE "4:cjc087_4575"
    INDEX 01 00:16:61
  TRACK 13 AUDIO
    TITLE "3:cjc087_4576"
    INDEX 01 00:18:41
  TRACK 14 AUDIO
    TITLE "0:"
    INDEX 01 00:20:26
  TRACK 15 AUDIO
    TITLE "4:cjc087_4577"
    INDEX 01 00:21:25
  TRACK 16 AUDIO
    TITLE "3:cjc087_4578"
    INDEX 01 00:22:46
  TRACK 17 AUDIO
    TITLE "0:"
    INDEX 01 00:24:74
  TRACK 18 AUDIO
    TITLE "4:cjc087_4579"
    INDEX 01 00:25:72
  TRACK 19 AUDIO
    TITLE "3:cjc087_4580"
    INDEX 01 00:28:00
  TRACK 20 AUDIO
    TITLE "0:"
    INDEX 01 00:30:01
  TRACK 21 AUDIO
    TITLE "4:cjc087_4581"
    INDEX 01 00:30:73
  TRACK 22 AUDIO
    TITLE "3:cjc087_4582"
    INDEX 01 00:33:03
  TRACK 23 AUDIO
    TITLE "0:"
    INDEX 01 00:36:05
  TRACK 24 AUDIO
    TITLE "4:cjc087_4583"
    INDEX 01 00:37:10
  TRACK 25 AUDIO
    TITLE "3:cjc087_4584"
    INDEX 01 00:40:54
  TRACK 26 AUDIO
    TITLE "0:"
    INDEX 01 00:43:31
  TRACK 27 AUDIO
    TITLE "5:cjc087_4585"
    INDEX 01 00:44:65
  TRACK 28 AUDIO
    TITLE "0:"
    INDEX 01 00:47:01
  TRACK 29 AUDIO
    TITLE "4:cjc087_4586"
    INDEX 01 00:48:00
  TRACK 30 AUDIO
    TITLE "3:cjc087_4587"
    INDEX 01 00:49:53
  TRACK 31 AUDIO
    TITLE "0:"
    INDEX 01 00:52:32
  TRACK 32 AUDIO
    TITLE "4:cjc087_4588"
    INDEX 01 00:53:31
  TRACK 33 AUDIO
    TITLE "3:cjc087_4589"
    INDEX 01 00:55:08
  TRACK 34 AUDIO
    TITLE "0:"
    INDEX 01 00:57:13
  TRACK 35 AUDIO
    TITLE "4:cjc087_4590"
    INDEX 01 00:58:15
  TRACK 36 AUDIO
    TITLE "3:cjc087_4591"
    INDEX 01 01:00:59
  TRACK 37 AUDIO
    TITLE "0:"
    INDEX 01 01:03:29
  TRACK 38 AUDIO
    TITLE "4:cjc087_4592"
    INDEX 01 01:04:29
  TRACK 39 AUDIO
    TITLE "3:cjc087_4593"
    INDEX 01 01:06:38
  TRACK 40 AUDIO
    TITLE "0:"
    INDEX 01 01:08:21
  TRACK 41 AUDIO
    TITLE "4:cjc087_4594"
    INDEX 01 01:09:18
  TRACK 42 AUDIO
    TITLE "3:cjc087_4595"
    INDEX 01 01:11:31
  TRACK 43 AUDIO
    TITLE "0:"
    INDEX 01 01:14:06
  TRACK 44 AUDIO
    TITLE "4:cjc087_4596"
    INDEX 01 01:15:05
  TRACK 45 AUDIO
    TITLE "3:cjc087_4597"
    INDEX 01 01:17:61
  TRACK 46 AUDIO
    TITLE "0:"
    INDEX 01 01:19:68
  TRACK 47 AUDIO
    TITLE "4:cjc087_4598"
    INDEX 01 01:20:67
  TRACK 48 AUDIO
    TITLE "3:cjc087_4599"
    INDEX 01 01:22:39
  TRACK 49 AUDIO
    TITLE "0:"
    INDEX 01 01:24:28
  TRACK 50 AUDIO
    TITLE "4:cjc087_4600"
    INDEX 01 01:25:27
  TRACK 51 AUDIO
    TITLE "3:cjc087_4601"
    INDEX 01 01:28:08
  TRACK 52 AUDIO
    TITLE "0:"
    INDEX 01 01:30:58
  TRACK 53 AUDIO
    TITLE "5:cjc087_4602"
    INDEX 01 01:32:17
  TRACK 54 AUDIO
    TITLE "0:"
    INDEX 01 01:34:50
  TRACK 55 AUDIO
    TITLE "4:cjc087_4603"
    INDEX 01 01:35:45
  TRACK 56 AUDIO
    TITLE "3:cjc087_4604"
    INDEX 01 01:37:15
  TRACK 57 AUDIO
    TITLE "0:"
    INDEX 01 01:39:15
  TRACK 58 AUDIO
    TITLE "4:cjc087_4605"
    INDEX 01 01:40:13
  TRACK 59 AUDIO
    TITLE "3:cjc087_4606"
    INDEX 01 01:43:43
  TRACK 60 AUDIO
    TITLE "0:"
    INDEX 01 01:45:59
  TRACK 61 AUDIO
    TITLE "4:cjc087_4607"
    INDEX 01 01:46:63
  TRACK 62 AUDIO
    TITLE "3:cjc087_4608"
    INDEX 01 01:48:40
  TRACK 63 AUDIO
    TITLE "0:"
    INDEX 01 01:50:66
  TRACK 64 AUDIO
    TITLE "4:cjc087_4609"
    INDEX 01 01:51:64
  TRACK 65 AUDIO
    TITLE "3:cjc087_4610"
    INDEX 01 01:53:41
  TRACK 66 AUDIO
    TITLE "0:"
    INDEX 01 01:55:54
  TRACK 67 AUDIO
    TITLE "4:cjc087_4611"
    INDEX 01 01:56:51
  TRACK 68 AUDIO
    TITLE "3:cjc087_4612"
    INDEX 01 01:59:06
  TRACK 69 AUDIO
    TITLE "0:"
    INDEX 01 02:01:37
  TRACK 70 AUDIO
    TITLE "4:cjc087_4613"
    INDEX 01 02:02:36
  TRACK 71 AUDIO
    TITLE "3:cjc087_4614"
    INDEX 01 02:04:53
  TRACK 72 AUDIO
    TITLE "0:"
    INDEX 01 02:07:12
  TRACK 73 AUDIO
    TITLE "4:cjc087_4615"
    INDEX 01 02:08:09
  TRACK 74 AUDIO
    TITLE "3:cjc087_4616"
    INDEX 01 02:10:02
  TRACK 75 AUDIO
    TITLE "0:"
    INDEX 01 02:12:40
  TRACK 76 AUDIO
    TITLE "5:cjc087_4617"
    INDEX 01 02:14:00
  TRACK 77 AUDIO
    TITLE "0:"
    INDEX 01 02:16:23
  TRACK 78 AUDIO
    TITLE "4:cjc087_4618"
    INDEX 01 02:17:22
  TRACK 79 AUDIO
    TITLE "3:cjc087_4619"
    INDEX 01 02:18:66
  TRACK 80 AUDIO
    TITLE "0:"
    INDEX 01 02:20:58
  TRACK 81 AUDIO
    TITLE "4:cjc087_4620"
    INDEX 01 02:21:55
  TRACK 82 AUDIO
    TITLE "3:cjc087_4621"
    INDEX 01 02:24:12
  TRACK 83 AUDIO
    TITLE "0:"
    INDEX 01 02:26:44
  TRACK 84 AUDIO
    TITLE "4:cjc087_4622"
    INDEX 01 02:27:38
  TRACK 85 AUDIO
    TITLE "3:cjc087_4623"
    INDEX 01 02:29:11
  TRACK 86 AUDIO
    TITLE "0:"
    INDEX 01 02:30:58
  TRACK 87 AUDIO
    TITLE "4:cjc087_4624"
    INDEX 01 02:31:55
  TRACK 88 AUDIO
    TITLE "3:cjc087_4625"
    INDEX 01 02:34:18
  TRACK 89 AUDIO
    TITLE "0:"
    INDEX 01 02:37:11
  TRACK 90 AUDIO
    TITLE "4:cjc087_4626"
    INDEX 01 02:38:08
  TRACK 91 AUDIO
    TITLE "3:cjc087_4627"
    INDEX 01 02:40:11
  TRACK 92 AUDIO
    TITLE "0:"
    INDEX 01 02:43:12
  TRACK 93 AUDIO
    TITLE "4:cjc087_4628"
    INDEX 01 02:44:09
  TRACK 94 AUDIO
    TITLE "3:cjc087_4629"
    INDEX 01 02:45:61
  TRACK 95 AUDIO
    TITLE "0:"
    INDEX 01 02:47:70
  TRACK 96 AUDIO
    TITLE "4:cjc087_4630"
    INDEX 01 02:48:70
  TRACK 97 AUDIO
    TITLE "3:cjc087_4631"
    INDEX 01 02:51:01
  TRACK 98 AUDIO
    TITLE "0:"
    INDEX 01 02:53:12
  TRACK 99 AUDIO
    TITLE "2:cjc087_4632"
    INDEX 01 02:54:47
  TRACK 100 AUDIO
    TITLE "0:"
    INDEX 01 03:07:14
  TRACK 101 AUDIO
    TITLE "5:cjc087_4633"
    INDEX 01 03:08:47
  TRACK 102 AUDIO
    TITLE "0:"
    INDEX 01 03:10:69
  TRACK 103 AUDIO
    TITLE "4:cjc087_4634"
    INDEX 01 03:11:65
  TRACK 104 AUDIO
    TITLE "3:cjc087_4635"
    INDEX 01 03:13:24
  TRACK 105 AUDIO
    TITLE "0:"
    INDEX 01 03:15:37
  TRACK 106 AUDIO
    TITLE "4:cjc087_4636"
    INDEX 01 03:16:35
  TRACK 107 AUDIO
    TITLE "3:cjc087_4637"
    INDEX 01 03:19:17
  TRACK 108 AUDIO
    TITLE "0:"
    INDEX 01 03:21:08
  TRACK 109 AUDIO
    TITLE "4:cjc087_4638"
    INDEX 01 03:22:14
  TRACK 110 AUDIO
    TITLE "3:cjc087_4639"
    INDEX 01 03:25:39
  TRACK 111 AUDIO
    TITLE "0:"
    INDEX 01 03:27:68
  TRACK 112 AUDIO
    TITLE "4:cjc087_4640"
    INDEX 01 03:28:65
  TRACK 113 AUDIO
    TITLE "3:cjc087_4641"
    INDEX 01 03:30:39
  TRACK 114 AUDIO
    TITLE "0:"
    INDEX 01 03:32:26
  TRACK 115 AUDIO
    TITLE "4:cjc087_4642"
    INDEX 01 03:33:25
  TRACK 116 AUDIO
    TITLE "3:cjc087_4643"
    INDEX 01 03:37:43
  TRACK 117 AUDIO
    TITLE "0:"
    INDEX 01 03:41:68
  TRACK 118 AUDIO
    TITLE "4:cjc087_4644"
    INDEX 01 03:43:02
  TRACK 119 AUDIO
    TITLE "3:cjc087_4645"
    INDEX 01 03:44:60
  TRACK 120 AUDIO
    TITLE "0:"
    INDEX 01 03:46:59
  TRACK 121 AUDIO
    TITLE "4:cjc087_4646"
    INDEX 01 03:47:59
  TRACK 122 AUDIO
    TITLE "3:cjc087_4647"
    INDEX 01 03:49:30
  TRACK 123 AUDIO
    TITLE "0:"
    INDEX 01 03:51:58
  TRACK 124 AUDIO
    TITLE "5:cjc087_4648"
    INDEX 01 03:53:20
  TRACK 125 AUDIO
    TITLE "0:"
    INDEX 01 03:55:40
  TRACK 126 AUDIO
    TITLE "4:cjc087_4649"
    INDEX 01 03:56:38
  TRACK 127 AUDIO
    TITLE "3:cjc087_4650"
    INDEX 01 03:59:62
  TRACK 128 AUDIO
    TITLE "0:"
    INDEX 01 04:01:43
  TRACK 129 AUDIO
    TITLE "4:cjc087_4651"
    INDEX 01 04:02:41
  TRACK 130 AUDIO
    TITLE "3:cjc087_4652"
    INDEX 01 04:04:08
  TRACK 131 AUDIO
    TITLE "0:"
    INDEX 01 04:06:19
  TRACK 132 AUDIO
    TITLE "4:cjc087_4653"
    INDEX 01 04:07:18
  TRACK 133 AUDIO
    TITLE "3:cjc087_4654"
    INDEX 01 04:08:71
  TRACK 134 AUDIO
    TITLE "0:"
    INDEX 01 04:10:36
  TRACK 135 AUDIO
    TITLE "4:cjc087_4655"
    INDEX 01 04:11:34
  TRACK 136 AUDIO
    TITLE "3:cjc087_4656"
    INDEX 01 04:13:21
  TRACK 137 AUDIO
    TITLE "0:"
    INDEX 01 04:16:05
  TRACK 138 AUDIO
    TITLE "4:cjc087_4657"
    INDEX 01 04:17:03
  TRACK 139 AUDIO
    TITLE "3:cjc087_4658"
    INDEX 01 04:18:45
  TRACK 140 AUDIO
    TITLE "0:"
    INDEX 01 04:20:38
  TRACK 141 AUDIO
    TITLE "4:cjc087_4659"
    INDEX 01 04:21:38
  TRACK 142 AUDIO
    TITLE "3:cjc087_4660"
    INDEX 01 04:22:61
  TRACK 143 AUDIO
    TITLE "0:"
    INDEX 01 04:24:56
  TRACK 144 AUDIO
    TITLE "4:cjc087_4661"
    INDEX 01 04:25:53
  TRACK 145 AUDIO
    TITLE "3:cjc087_4662"
    INDEX 01 04:27:31
  TRACK 146 AUDIO
    TITLE "0:"
    INDEX 01 04:29:04
  TRACK 147 AUDIO
    TITLE "4:cjc087_4663"
    INDEX 01 04:30:04
  TRACK 148 AUDIO
    TITLE "3:cjc087_4664"
    INDEX 01 04:31:28
  TRACK 149 AUDIO
    TITLE "0:"
    INDEX 01 04:33:72
  TRACK 150 AUDIO
    TITLE "5:cjc087_4665"
    INDEX 01 04:35:32
  TRACK 151 AUDIO
    TITLE "0:"
    INDEX 01 04:37:60
  TRACK 152 AUDIO
    TITLE "4:cjc087_4666"
    INDEX 01 04:38:56
  TRACK 153 AUDIO
    TITLE "3:cjc087_4667"
    INDEX 01 04:40:55
  TRACK 154 AUDIO
    TITLE "0:"
    INDEX 01 04:42:38
  TRACK 155 AUDIO
    TITLE "4:cjc087_4668"
    INDEX 01 04:43:36
  TRACK 156 AUDIO
    TITLE "3:cjc087_4669"
    INDEX 01 04:45:07
  TRACK 157 AUDIO
    TITLE "0:"
    INDEX 01 04:47:08
  TRACK 158 AUDIO
    TITLE "4:cjc087_4670"
    INDEX 01 04:48:05
  TRACK 159 AUDIO
    TITLE "3:cjc087_4671"
    INDEX 01 04:50:20
  TRACK 160 AUDIO
    TITLE "0:"
    INDEX 01 04:52:29
  TRACK 161 AUDIO
    TITLE "4:cjc087_4672"
    INDEX 01 04:53:36
  TRACK 162 AUDIO
    TITLE "3:cjc087_4673"
    INDEX 01 04:55:52
  TRACK 163 AUDIO
    TITLE "0:"
    INDEX 01 04:57:57
  TRACK 164 AUDIO
    TITLE "4:cjc087_4674"
    INDEX 01 04:58:55
  TRACK 165 AUDIO
    TITLE "3:cjc087_4675"
    INDEX 01 05:01:00
  TRACK 166 AUDIO
    TITLE "0:"
    INDEX 01 05:03:23
  TRACK 167 AUDIO
    TITLE "4:cjc087_4676"
    INDEX 01 05:04:18
  TRACK 168 AUDIO
    TITLE "3:cjc087_4677"
    INDEX 01 05:07:26
  TRACK 169 AUDIO
    TITLE "0:"
    INDEX 01 05:09:66
  TRACK 170 AUDIO
    TITLE "4:cjc087_4678"
    INDEX 01 05:10:68
  TRACK 171 AUDIO
    TITLE "3:cjc087_4679"
    INDEX 01 05:13:70
  TRACK 172 AUDIO
    TITLE "0:"
    INDEX 01 05:16:21
  TRACK 173 AUDIO
    TITLE "4:cjc087_4680"
    INDEX 01 05:17:21
  TRACK 174 AUDIO
    TITLE "3:cjc087_4681"
    INDEX 01 05:19:67
  TRACK 175 AUDIO
    TITLE "0:"
    INDEX 01 05:22:16
  TRACK 176 AUDIO
    TITLE "5:cjc087_4682"
    INDEX 01 05:23:53
  TRACK 177 AUDIO
    TITLE "0:"
    INDEX 01 05:26:10
  TRACK 178 AUDIO
    TITLE "4:cjc087_4683"
    INDEX 01 05:27:05
  TRACK 179 AUDIO
    TITLE "3:cjc087_4684"
    INDEX 01 05:28:54
  TRACK 180 AUDIO
    TITLE "0:"
    INDEX 01 05:30:33
  TRACK 181 AUDIO
    TITLE "4:cjc087_4685"
    INDEX 01 05:31:31
  TRACK 182 AUDIO
    TITLE "3:cjc087_4686"
    INDEX 01 05:33:16
  TRACK 183 AUDIO
    TITLE "0:"
    INDEX 01 05:35:01
  TRACK 184 AUDIO
    TITLE "4:cjc087_4687"
    INDEX 01 05:35:74
  TRACK 185 AUDIO
    TITLE "3:cjc087_4688"
    INDEX 01 05:37:53
  TRACK 186 AUDIO
    TITLE "0:"
    INDEX 01 05:39:50
  TRACK 187 AUDIO
    TITLE "4:cjc087_4689"
    INDEX 01 05:40:43
  TRACK 188 AUDIO
    TITLE "3:cjc087_4690"
    INDEX 01 05:42:21
  TRACK 189 AUDIO
    TITLE "0:"
    INDEX 01 05:44:41
  TRACK 190 AUDIO
    TITLE "4:cjc087_4691"
    INDEX 01 05:45:41
  TRACK 191 AUDIO
    TITLE "3:cjc087_4692"
    INDEX 01 05:47:53
  TRACK 192 AUDIO
    TITLE "0:"
    INDEX 01 05:50:30
  TRACK 193 AUDIO
    TITLE "4:cjc087_4693"
    INDEX 01 05:51:29
  TRACK 194 AUDIO
    TITLE "3:cjc087_4694"
    INDEX 01 05:54:10
  TRACK 195 AUDIO
    TITLE "0:"
    INDEX 01 05:57:52
  TRACK 196 AUDIO
    TITLE "4:cjc087_4695"
    INDEX 01 05:58:49
  TRACK 197 AUDIO
    TITLE "3:cjc087_4696"
    INDEX 01 06:00:44
  TRACK 198 AUDIO
    TITLE "0:"
    INDEX 01 06:02:18
  TRACK 199 AUDIO
    TITLE "5:cjc087_4697"
    INDEX 01 06:03:52
  TRACK 200 AUDIO
    TITLE "0:"
    INDEX 01 06:06:04
  TRACK 201 AUDIO
    TITLE "4:cjc087_4698"
    INDEX 01 06:07:03
  TRACK 202 AUDIO
    TITLE "3:cjc087_4699"
    INDEX 01 06:09:06
  TRACK 203 AUDIO
    TITLE "0:"
    INDEX 01 06:11:16
  TRACK 204 AUDIO
    TITLE "4:cjc087_4700"
    INDEX 01 06:12:14
  TRACK 205 AUDIO
    TITLE "3:cjc087_4701"
    INDEX 01 06:14:52
  TRACK 206 AUDIO
    TITLE "0:"
    INDEX 01 06:17:25
  TRACK 207 AUDIO
    TITLE "4:cjc087_4702"
    INDEX 01 06:18:22
  TRACK 208 AUDIO
    TITLE "3:cjc087_4703"
    INDEX 01 06:20:64
  TRACK 209 AUDIO
    TITLE "0:"
    INDEX 01 06:24:25
  TRACK 210 AUDIO
    TITLE "4:cjc087_4704"
    INDEX 01 06:25:22
  TRACK 211 AUDIO
    TITLE "3:cjc087_4705"
    INDEX 01 06:27:17
  TRACK 212 AUDIO
    TITLE "0:"
    INDEX 01 06:29:12
  TRACK 213 AUDIO
    TITLE "4:cjc087_4706"
    INDEX 01 06:30:08
  TRACK 214 AUDIO
    TITLE "3:cjc087_4707"
    INDEX 01 06:32:03
  TRACK 215 AUDIO
    TITLE "0:"
    INDEX 01 06:34:12
  TRACK 216 AUDIO
    TITLE "4:cjc087_4708"
    INDEX 01 06:35:09
  TRACK 217 AUDIO
    TITLE "3:cjc087_4709"
    INDEX 01 06:37:35
  TRACK 218 AUDIO
    TITLE "0:"
    INDEX 01 06:39:34
  TRACK 219 AUDIO
    TITLE "4:cjc087_4710"
    INDEX 01 06:40:40
  TRACK 220 AUDIO
    TITLE "3:cjc087_4711"
    INDEX 01 06:42:70
  TRACK 221 AUDIO
    TITLE "0:"
    INDEX 01 06:44:73
  TRACK 222 AUDIO
    TITLE "5:cjc087_4712"
    INDEX 01 06:46:34
  TRACK 223 AUDIO
    TITLE "0:"
    INDEX 01 06:48:67
  TRACK 224 AUDIO
    TITLE "4:cjc087_4713"
    INDEX 01 06:49:64
  TRACK 225 AUDIO
    TITLE "3:cjc087_4714"
    INDEX 01 06:51:65
  TRACK 226 AUDIO
    TITLE "0:"
    INDEX 01 06:54:10
  TRACK 227 AUDIO
    TITLE "4:cjc087_4715"
    INDEX 01 06:55:08
  TRACK 228 AUDIO
    TITLE "3:cjc087_4716"
    INDEX 01 06:57:13
  TRACK 229 AUDIO
    TITLE "0:"
    INDEX 01 06:59:41
  TRACK 230 AUDIO
    TITLE "4:cjc087_4717"
    INDEX 01 07:00:38
  TRACK 231 AUDIO
    TITLE "3:cjc087_4718"
    INDEX 01 07:02:22
  TRACK 232 AUDIO
    TITLE "0:"
    INDEX 01 07:04:07
  TRACK 233 AUDIO
    TITLE "4:cjc087_4719"
    INDEX 01 07:05:08
  TRACK 234 AUDIO
    TITLE "3:cjc087_4720"
    INDEX 01 07:06:57
  TRACK 235 AUDIO
    TITLE "0:"
    INDEX 01 07:08:38
  TRACK 236 AUDIO
    TITLE "4:cjc087_4721"
    INDEX 01 07:09:35
  TRACK 237 AUDIO
    TITLE "3:cjc087_4722"
    INDEX 01 07:11:36
  TRACK 238 AUDIO
    TITLE "0:"
    INDEX 01 07:13:18
  TRACK 239 AUDIO
    TITLE "4:cjc087_4723"
    INDEX 01 07:14:15
  TRACK 240 AUDIO
    TITLE "3:cjc087_4724"
    INDEX 01 07:16:51
  TRACK 241 AUDIO
    TITLE "0:"
    INDEX 01 07:19:30
  TRACK 242 AUDIO
    TITLE "4:cjc087_4725"
    INDEX 01 07:20:25
  TRACK 243 AUDIO
    TITLE "3:cjc087_4726"
    INDEX 01 07:22:54
  TRACK 244 AUDIO
    TITLE "0:"
    INDEX 01 07:24:64
  TRACK 245 AUDIO
    TITLE "2:cjc087_4727"
    INDEX 01 07:26:26
  TRACK 246 AUDIO
    TITLE "0:"
    INDEX 01 08:01:26
  TRACK 247 AUDIO
    TITLE "5:cjc087_4728"
    INDEX 01 08:02:65
  TRACK 248 AUDIO
    TITLE "0:"
    INDEX 01 08:05:20
  TRACK 249 AUDIO
    TITLE "4:cjc087_4729"
    INDEX 01 08:06:18
  TRACK 250 AUDIO
    TITLE "3:cjc087_4730"
    INDEX 01 08:09:00
  TRACK 251 AUDIO
    TITLE "0:"
    INDEX 01 08:11:35
  TRACK 252 AUDIO
    TITLE "4:cjc087_4731"
    INDEX 01 08:12:32
  TRACK 253 AUDIO
    TITLE "3:cjc087_4732"
    INDEX 01 08:14:02
  TRACK 254 AUDIO
    TITLE "0:"
    INDEX 01 08:15:54
  TRACK 255 AUDIO
    TITLE "4:cjc087_4733"
    INDEX 01 08:16:51
  TRACK 256 AUDIO
    TITLE "3:cjc087_4734"
    INDEX 01 08:18:72
  TRACK 257 AUDIO
    TITLE "0:"
    INDEX 01 08:22:32
  TRACK 258 AUDIO
    TITLE "4:cjc087_4735"
    INDEX 01 08:23:32
  TRACK 259 AUDIO
    TITLE "3:cjc087_4736"
    INDEX 01 08:24:57
  TRACK 260 AUDIO
    TITLE "0:"
    INDEX 01 08:26:44
  TRACK 261 AUDIO
    TITLE "4:cjc087_4737"
    INDEX 01 08:27:41
  TRACK 262 AUDIO
    TITLE "3:cjc087_4738"
    INDEX 01 08:28:74
  TRACK 263 AUDIO
    TITLE "0:"
    INDEX 01 08:30:69
  TRACK 264 AUDIO
    TITLE "4:cjc087_4739"
    INDEX 01 08:31:65
  TRACK 265 AUDIO
    TITLE "3:cjc087_4740"
    INDEX 01 08:33:32
  TRACK 266 AUDIO
    TITLE "0:"
    INDEX 01 08:35:39
  TRACK 267 AUDIO
    TITLE "4:cjc087_4741"
    INDEX 01 08:36:36
  TRACK 268 AUDIO
    TITLE "3:cjc087_4742"
    INDEX 01 08:38:22
  TRACK 269 AUDIO
    TITLE "0:"
    INDEX 01 08:40:24
  TRACK 270 AUDIO
    TITLE "5:cjc087_4743"
    INDEX 01 08:41:61
  TRACK 271 AUDIO
    TITLE "0:"
    INDEX 01 08:43:74
  TRACK 272 AUDIO
    TITLE "4:cjc087_4744"
    INDEX 01 08:44:73
  TRACK 273 AUDIO
    TITLE "3:cjc087_4745"
    INDEX 01 08:47:11
  TRACK 274 AUDIO
    TITLE "0:"
    INDEX 01 08:49:33
  TRACK 275 AUDIO
    TITLE "4:cjc087_4746"
    INDEX 01 08:50:31
  TRACK 276 AUDIO
    TITLE "3:cjc087_4747"
    INDEX 01 08:51:73
  TRACK 277 AUDIO
    TITLE "0:"
    INDEX 01 08:54:30
  TRACK 278 AUDIO
    TITLE "4:cjc087_4748"
    INDEX 01 08:55:28
  TRACK 279 AUDIO
    TITLE "3:cjc087_4749"
    INDEX 01 08:58:20
  TRACK 280 AUDIO
    TITLE "0:"
    INDEX 01 09:01:07
  TRACK 281 AUDIO
    TITLE "4:cjc087_4750"
    INDEX 01 09:02:06
  TRACK 282 AUDIO
    TITLE "3:cjc087_4751"
    INDEX 01 09:03:53
  TRACK 283 AUDIO
    TITLE "0:"
    INDEX 01 09:05:54
  TRACK 284 AUDIO
    TITLE "4:cjc087_4752"
    INDEX 01 09:06:53
  TRACK 285 AUDIO
    TITLE "3:cjc087_4753"
    INDEX 01 09:08:70
  TRACK 286 AUDIO
    TITLE "0:"
    INDEX 01 09:10:71
  TRACK 287 AUDIO
    TITLE "4:cjc087_4754"
    INDEX 01 09:11:70
  TRACK 288 AUDIO
    TITLE "3:cjc087_4755"
    INDEX 01 09:14:37
  TRACK 289 AUDIO
    TITLE "0:"
    INDEX 01 09:17:02
  TRACK 290 AUDIO
    TITLE "4:cjc087_4756"
    INDEX 01 09:18:00
  TRACK 291 AUDIO
    TITLE "3:cjc087_4757"
    INDEX 01 09:20:28
  TRACK 292 AUDIO
    TITLE "0:"
    INDEX 01 09:22:42
  TRACK 293 AUDIO
    TITLE "5:cjc087_4758"
    INDEX 01 09:24:04
  TRACK 294 AUDIO
    TITLE "0:"
    INDEX 01 09:26:42
  TRACK 295 AUDIO
    TITLE "4:cjc087_4759"
    INDEX 01 09:27:38
  TRACK 296 AUDIO
    TITLE "3:cjc087_4760"
    INDEX 01 09:29:56
  TRACK 297 AUDIO
    TITLE "0:"
    INDEX 01 09:32:51
  TRACK 298 AUDIO
    TITLE "4:cjc087_4761"
    INDEX 01 09:33:48
  TRACK 299 AUDIO
    TITLE "3:cjc087_4762"
    INDEX 01 09:35:24
  TRACK 300 AUDIO
    TITLE "0:"
    INDEX 01 09:37:13
  TRACK 301 AUDIO
    TITLE "4:cjc087_4763"
    INDEX 01 09:38:14
  TRACK 302 AUDIO
    TITLE "3:cjc087_4764"
    INDEX 01 09:41:16
  TRACK 303 AUDIO
    TITLE "0:"
    INDEX 01 09:44:32
  TRACK 304 AUDIO
    TITLE "4:cjc087_4765"
    INDEX 01 09:45:32
  TRACK 305 AUDIO
    TITLE "3:cjc087_4766"
    INDEX 01 09:47:23
  TRACK 306 AUDIO
    TITLE "0:"
    INDEX 01 09:49:20
  TRACK 307 AUDIO
    TITLE "4:cjc087_4767"
    INDEX 01 09:50:17
  TRACK 308 AUDIO
    TITLE "3:cjc087_4768"
    INDEX 01 09:52:24
  TRACK 309 AUDIO
    TITLE "0:"
    INDEX 01 09:55:03
  TRACK 310 AUDIO
    TITLE "4:cjc087_4769"
    INDEX 01 09:56:00
  TRACK 311 AUDIO
    TITLE "3:cjc087_4770"
    INDEX 01 09:58:17
  TRACK 312 AUDIO
    TITLE "0:"
    INDEX 01 10:00:33
  TRACK 313 AUDIO
    TITLE "5:cjc087_4771"
    INDEX 01 10:01:68
  TRACK 314 AUDIO
    TITLE "0:"
    INDEX 01 10:04:25
  TRACK 315 AUDIO
    TITLE "3:cjc087_4772"
    INDEX 01 10:05:23
  TRACK 316 AUDIO
    TITLE "4:cjc087_4773"
    INDEX 01 10:06:67
  TRACK 317 AUDIO
    TITLE "0:"
    INDEX 01 10:08:17
  TRACK 318 AUDIO
    TITLE "3:cjc087_4774"
    INDEX 01 10:09:13
  TRACK 319 AUDIO
    TITLE "4:cjc087_4775"
    INDEX 01 10:11:02
  TRACK 320 AUDIO
    TITLE "0:"
    INDEX 01 10:12:38
  TRACK 321 AUDIO
    TITLE "3:cjc087_4776"
    INDEX 01 10:13:36
  TRACK 322 AUDIO
    TITLE "4:cjc087_4777"
    INDEX 01 10:15:66
  TRACK 323 AUDIO
    TITLE "0:"
    INDEX 01 10:18:21
  TRACK 324 AUDIO
    TITLE "3:cjc087_4778"
    INDEX 01 10:19:21
  TRACK 325 AUDIO
    TITLE "4:cjc087_4779"
    INDEX 01 10:21:53
  TRACK 326 AUDIO
    TITLE "0:"
    INDEX 01 10:24:00
  TRACK 327 AUDIO
    TITLE "3:cjc087_4780"
    INDEX 01 10:24:73
  TRACK 328 AUDIO
    TITLE "4:cjc087_4781"
    INDEX 01 10:27:07
  TRACK 329 AUDIO
    TITLE "0:"
    INDEX 01 10:30:17
  TRACK 330 AUDIO
    TITLE "3:cjc087_4782"
    INDEX 01 10:31:14
  TRACK 331 AUDIO
    TITLE "4:cjc087_4783"
    INDEX 01 10:35:24
  TRACK 332 AUDIO
    TITLE "0:"
    INDEX 01 10:37:09
  TRACK 333 AUDIO
    TITLE "5:cjc087_4784"
    INDEX 01 10:38:44
  TRACK 334 AUDIO
    TITLE "0:"
    INDEX 01 10:41:05
  TRACK 335 AUDIO
    TITLE "4:cjc087_4785"
    INDEX 01 10:41:73
  TRACK 336 AUDIO
    TITLE "3:cjc087_4786"
    INDEX 01 10:43:51
  TRACK 337 AUDIO
    TITLE "0:"
    INDEX 01 10:46:63
  TRACK 338 AUDIO
    TITLE "4:cjc087_4787"
    INDEX 01 10:47:62
  TRACK 339 AUDIO
    TITLE "3:cjc087_4788"
    INDEX 01 10:49:32
  TRACK 340 AUDIO
    TITLE "0:"
    INDEX 01 10:51:23
  TRACK 341 AUDIO
    TITLE "4:cjc087_4789"
    INDEX 01 10:52:20
  TRACK 342 AUDIO
    TITLE "3:cjc087_4790"
    INDEX 01 10:53:28
  TRACK 343 AUDIO
    TITLE "0:"
    INDEX 01 10:55:27
  TRACK 344 AUDIO
    TITLE "4:cjc087_4791"
    INDEX 01 10:56:24
  TRACK 345 AUDIO
    TITLE "3:cjc087_4792"
    INDEX 01 10:59:13
  TRACK 346 AUDIO
    TITLE "0:"
    INDEX 01 11:01:35
  TRACK 347 AUDIO
    TITLE "4:cjc087_4793"
    INDEX 01 11:02:34
  TRACK 348 AUDIO
    TITLE "3:cjc087_4794"
    INDEX 01 11:06:07
  TRACK 349 AUDIO
    TITLE "0:"
    INDEX 01 11:09:07
  TRACK 350 AUDIO
    TITLE "4:cjc087_4795"
    INDEX 01 11:10:06
  TRACK 351 AUDIO
    TITLE "3:cjc087_4796"
    INDEX 01 11:12:09
  TRACK 352 AUDIO
    TITLE "0:"
    INDEX 01 11:14:34
  TRACK 353 AUDIO
    TITLE "4:cjc087_4797"
    INDEX 01 11:15:31
  TRACK 354 AUDIO
    TITLE "3:cjc087_4798"
    INDEX 01 11:18:02
  TRACK 355 AUDIO
    TITLE "0:"
    INDEX 01 11:20:73
  TRACK 356 AUDIO
    TITLE "5:cjc087_4799"
    INDEX 01 11:22:35
  TRACK 357 AUDIO
    TITLE "0:"
    INDEX 01 11:24:67
  TRACK 358 AUDIO
    TITLE "3:cjc087_4800"
    INDEX 01 11:25:65
  TRACK 359 AUDIO
    TITLE "4:cjc087_4801"
    INDEX 01 11:28:24
  TRACK 360 AUDIO
    TITLE "0:"
    INDEX 01 11:31:13
  TRACK 361 AUDIO
    TITLE "3:cjc087_4802"
    INDEX 01 11:32:12
  TRACK 362 AUDIO
    TITLE "4:cjc087_4803"
    INDEX 01 11:35:22
  TRACK 363 AUDIO
    TITLE "0:"
    INDEX 01 11:38:15
  TRACK 364 AUDIO
    TITLE "3:cjc087_4804"
    INDEX 01 11:39:12
  TRACK 365 AUDIO
    TITLE "4:cjc087_4805"
    INDEX 01 11:41:33
  TRACK 366 AUDIO
    TITLE "0:"
    INDEX 01 11:44:17
  TRACK 367 AUDIO
    TITLE "3:cjc087_4806"
    INDEX 01 11:45:17
  TRACK 368 AUDIO
    TITLE "4:cjc087_4807"
    INDEX 01 11:47:63
  TRACK 369 AUDIO
    TITLE "0:"
    INDEX 01 11:50:45
  TRACK 370 AUDIO
    TITLE "3:cjc087_4808"
    INDEX 01 11:51:39
  TRACK 371 AUDIO
    TITLE "4:cjc087_4809"
    INDEX 01 11:54:45
  TRACK 372 AUDIO
    TITLE "0:"
    INDEX 01 11:57:45
  TRACK 373 AUDIO
    TITLE "3:cjc087_4810"
    INDEX 01 11:58:45
  TRACK 374 AUDIO
    TITLE "4:cjc087_4811"
    INDEX 01 12:01:74
  TRACK 375 AUDIO
    TITLE "0:"
    INDEX 01 12:05:02
  TRACK 376 AUDIO
    TITLE "2:cjc087_4812"
    INDEX 01 12:06:32
  TRACK 377 AUDIO
    TITLE "0:"
    INDEX 01 12:15:59
  TRACK 378 AUDIO
    TITLE "5:cjc087_4813"
    INDEX 01 12:17:26
  TRACK 379 AUDIO
    TITLE "0:"
    INDEX 01 12:19:61
  TRACK 380 AUDIO
    TITLE "4:cjc087_4814"
    INDEX 01 12:20:56
  TRACK 381 AUDIO
    TITLE "3:cjc087_4815"
    INDEX 01 12:23:13
  TRACK 382 AUDIO
    TITLE "0:"
    INDEX 01 12:25:65
  TRACK 383 AUDIO
    TITLE "4:cjc087_4816"
    INDEX 01 12:26:65
  TRACK 384 AUDIO
    TITLE "3:cjc087_4817"
    INDEX 01 12:29:24
  TRACK 385 AUDIO
    TITLE "0:"
    INDEX 01 12:31:62
  TRACK 386 AUDIO
    TITLE "4:cjc087_4818"
    INDEX 01 12:32:59
  TRACK 387 AUDIO
    TITLE "3:cjc087_4819"
    INDEX 01 12:35:34
  TRACK 388 AUDIO
    TITLE "0:"
    INDEX 01 12:38:11
  TRACK 389 AUDIO
    TITLE "4:cjc087_4820"
    INDEX 01 12:39:10
  TRACK 390 AUDIO
    TITLE "3:cjc087_4821"
    INDEX 01 12:40:74
  TRACK 391 AUDIO
    TITLE "0:"
    INDEX 01 12:42:66
  TRACK 392 AUDIO
    TITLE "4:cjc087_4822"
    INDEX 01 12:43:67
  TRACK 393 AUDIO
    TITLE "3:cjc087_4823"
    INDEX 01 12:46:08
  TRACK 394 AUDIO
    TITLE "0:"
    INDEX 01 12:48:29
  TRACK 395 AUDIO
    TITLE "4:cjc087_4824"
    INDEX 01 12:49:26
  TRACK 396 AUDIO
    TITLE "3:cjc087_4825"
    INDEX 01 12:51:47
  TRACK 397 AUDIO
    TITLE "0:"
    INDEX 01 12:53:26
  TRACK 398 AUDIO
    TITLE "4:cjc087_4826"
    INDEX 01 12:54:24
  TRACK 399 AUDIO
    TITLE "3:cjc087_4827"
    INDEX 01 12:56:28
  TRACK 400 AUDIO
    TITLE "0:"
    INDEX 01 12:58:61
  TRACK 401 AUDIO
    TITLE "4:cjc087_4828"
    INDEX 01 12:59:58
  TRACK 402 AUDIO
    TITLE "3:cjc087_4829"
    INDEX 01 13:01:39
  TRACK 403 AUDIO
    TITLE "0:"
    INDEX 01 13:04:06
  TRACK 404 AUDIO
    TITLE "5:cjc087_4830"
    INDEX 01 13:05:43
  TRACK 405 AUDIO
    TITLE "0:"
    INDEX 01 13:08:06
  TRACK 406 AUDIO
    TITLE "4:cjc087_4831"
    INDEX 01 13:09:04
  TRACK 407 AUDIO
    TITLE "3:cjc087_4832"
    INDEX 01 13:10:70
  TRACK 408 AUDIO
    TITLE "0:"
    INDEX 01 13:12:47
  TRACK 409 AUDIO
    TITLE "4:cjc087_4833"
    INDEX 01 13:13:46
  TRACK 410 AUDIO
    TITLE "3:cjc087_4834"
    INDEX 01 13:15:71
  TRACK 411 AUDIO
    TITLE "0:"
    INDEX 01 13:19:06
  TRACK 412 AUDIO
    TITLE "4:cjc087_4835"
    INDEX 01 13:20:03
  TRACK 413 AUDIO
    TITLE "3:cjc087_4836"
    INDEX 01 13:21:34
  TRACK 414 AUDIO
    TITLE "0:"
    INDEX 01 13:23:35
  TRACK 415 AUDIO
    TITLE "4:cjc087_4837"
    INDEX 01 13:24:35
  TRACK 416 AUDIO
    TITLE "3:cjc087_4838"
    INDEX 01 13:26:39
  TRACK 417 AUDIO
    TITLE "0:"
    INDEX 01 13:29:59
  TRACK 418 AUDIO
    TITLE "4:cjc087_4839"
    INDEX 01 13:30:55
  TRACK 419 AUDIO
    TITLE "3:cjc087_4840"
    INDEX 01 13:32:63
  TRACK 420 AUDIO
    TITLE "0:"
    INDEX 01 13:35:30
  TRACK 421 AUDIO
    TITLE "4:cjc087_4841"
    INDEX 01 13:36:22
  TRACK 422 AUDIO
    TITLE "3:cjc087_4842"
    INDEX 01 13:38:03
  TRACK 423 AUDIO
    TITLE "0:"
    INDEX 01 13:40:32
  TRACK 424 AUDIO
    TITLE "4:cjc087_4843"
    INDEX 01 13:41:29
  TRACK 425 AUDIO
    TITLE "3:cjc087_4844"
    INDEX 01 13:43:06
  TRACK 426 AUDIO
    TITLE "0:"
    INDEX 01 13:44:74
  TRACK 427 AUDIO
    TITLE "5:cjc087_4845"
    INDEX 01 13:46:36
  TRACK 428 AUDIO
    TITLE "0:"
    INDEX 01 13:48:70
  TRACK 429 AUDIO
    TITLE "4:cjc087_4846"
    INDEX 01 13:49:68
  TRACK 430 AUDIO
    TITLE "3:cjc087_4847"
    INDEX 01 13:51:27
  TRACK 431 AUDIO
    TITLE "0:"
    INDEX 01 13:53:03
  TRACK 432 AUDIO
    TITLE "4:cjc087_4848"
    INDEX 01 13:54:02
  TRACK 433 AUDIO
    TITLE "3:cjc087_4849"
    INDEX 01 13:55:66
  TRACK 434 AUDIO
    TITLE "0:"
    INDEX 01 13:57:69
  TRACK 435 AUDIO
    TITLE "4:cjc087_4850"
    INDEX 01 13:58:67
  TRACK 436 AUDIO
    TITLE "3:cjc087_4851"
    INDEX 01 14:00:42
  TRACK 437 AUDIO
    TITLE "0:"
    INDEX 01 14:02:19
  TRACK 438 AUDIO
    TITLE "4:cjc087_4852"
    INDEX 01 14:03:17
  TRACK 439 AUDIO
    TITLE "3:cjc087_4853"
    INDEX 01 14:04:63
  TRACK 440 AUDIO
    TITLE "0:"
    INDEX 01 14:06:53
  TRACK 441 AUDIO
    TITLE "4:cjc087_4854"
    INDEX 01 14:07:50
  TRACK 442 AUDIO
    TITLE "3:cjc087_4855"
    INDEX 01 14:09:57
  TRACK 443 AUDIO
    TITLE "0:"
    INDEX 01 14:11:54
  TRACK 444 AUDIO
    TITLE "4:cjc087_4856"
    INDEX 01 14:12:51
  TRACK 445 AUDIO
    TITLE "3:cjc087_4857"
    INDEX 01 14:14:19
  TRACK 446 AUDIO
    TITLE "0:"
    INDEX 01 14:15:67
  TRACK 447 AUDIO
    TITLE "4:cjc087_4858"
    INDEX 01 14:16:65
  TRACK 448 AUDIO
    TITLE "3:cjc087_4859"
    INDEX 01 14:18:62
  TRACK 449 AUDIO
    TITLE "0:"
    INDEX 01 14:20:59
  TRACK 450 AUDIO
    TITLE "5:cjc087_4860"
    INDEX 01 14:22:18
  TRACK 451 AUDIO
    TITLE "0:"
    INDEX 01 14:24:54
  TRACK 452 AUDIO
    TITLE "3:cjc087_4861"
    INDEX 01 14:25:54
  TRACK 453 AUDIO
    TITLE "4:cjc087_4862"
    INDEX 01 14:28:15
  TRACK 454 AUDIO
    TITLE "0:"
    INDEX 01 14:30:26
  TRACK 455 AUDIO
    TITLE "3:cjc087_4863"
    INDEX 01 14:31:21
  TRACK 456 AUDIO
    TITLE "4:cjc087_4864"
    INDEX 01 14:34:12
  TRACK 457 AUDIO
    TITLE "0:"
    INDEX 01 14:37:28
  TRACK 458 AUDIO
    TITLE "3:cjc087_4865"
    INDEX 01 14:38:25
  TRACK 459 AUDIO
    TITLE "4:cjc087_4866"
    INDEX 01 14:40:04
  TRACK 460 AUDIO
    TITLE "0:"
    INDEX 01 14:42:05
  TRACK 461 AUDIO
    TITLE "3:cjc087_4867"
    INDEX 01 14:43:05
  TRACK 462 AUDIO
    TITLE "4:cjc087_4868"
    INDEX 01 14:45:29
  TRACK 463 AUDIO
    TITLE "0:"
    INDEX 01 14:47:59
  TRACK 464 AUDIO
    TITLE "3:cjc087_4869"
    INDEX 01 14:48:53
  TRACK 465 AUDIO
    TITLE "4:cjc087_4870"
    INDEX 01 14:51:18
  TRACK 466 AUDIO
    TITLE "0:"
    INDEX 01 14:53:21
  TRACK 467 AUDIO
    TITLE "5:cjc087_4871"
    INDEX 01 14:54:55
  TRACK 468 AUDIO
    TITLE "0:"
    INDEX 01 14:57:13
  TRACK 469 AUDIO
    TITLE "4:cjc087_4872"
    INDEX 01 14:58:08
  TRACK 470 AUDIO
    TITLE "3:cjc087_4873"
    INDEX 01 15:03:49
  TRACK 471 AUDIO
    TITLE "0:"
    INDEX 01 15:08:65
  TRACK 472 AUDIO
    TITLE "4:cjc087_4874"
    INDEX 01 15:09:65
  TRACK 473 AUDIO
    TITLE "3:cjc087_4875"
    INDEX 01 15:12:24
  TRACK 474 AUDIO
    TITLE "0:"
    INDEX 01 15:14:41
  TRACK 475 AUDIO
    TITLE "4:cjc087_4876"
    INDEX 01 15:15:40
  TRACK 476 AUDIO
    TITLE "3:cjc087_4877"
    INDEX 01 15:17:41
  TRACK 477 AUDIO
    TITLE "0:"
    INDEX 01 15:22:38
  TRACK 478 AUDIO
    TITLE "4:cjc087_4878"
    INDEX 01 15:23:38
  TRACK 479 AUDIO
    TITLE "3:cjc087_4879"
    INDEX 01 15:25:60
  TRACK 480 AUDIO
    TITLE "0:"
    INDEX 01 15:28:00
  TRACK 481 AUDIO
    TITLE "4:cjc087_4880"
    INDEX 01 15:28:72
  TRACK 482 AUDIO
    TITLE "3:cjc087_4881"
    INDEX 01 15:30:53
  TRACK 483 AUDIO
    TITLE "0:"
    INDEX 01 15:32:44
  TRACK 484 AUDIO
    TITLE "4:cjc087_4882"
    INDEX 01 15:33:40
  TRACK 485 AUDIO
    TITLE "3:cjc087_4883"
    INDEX 01 15:35:21
  TRACK 486 AUDIO
    TITLE "0:"
    INDEX 01 15:38:33
  TRACK 487 AUDIO
    TITLE "4:cjc087_4884"
    INDEX 01 15:39:33
  TRACK 488 AUDIO
    TITLE "3:cjc087_4885"
    INDEX 01 15:41:65
  TRACK 489 AUDIO
    TITLE "0:"
    INDEX 01 15:44:53
  TRACK 490 AUDIO
    TITLE "4:cjc087_4886"
    INDEX 01 15:45:51
  TRACK 491 AUDIO
    TITLE "3:cjc087_4887"
    INDEX 01 15:47:48
  TRACK 492 AUDIO
    TITLE "0:"
    INDEX 01 15:49:33
  TRACK 493 AUDIO
    TITLE "5:cjc087_4888"
    INDEX 01 15:50:70
  TRACK 494 AUDIO
    TITLE "0:"
    INDEX 01 15:53:11
  TRACK 495 AUDIO
    TITLE "4:cjc087_4889"
    INDEX 01 15:54:09
  TRACK 496 AUDIO
    TITLE "3:cjc087_4890"
    INDEX 01 15:56:15
  TRACK 497 AUDIO
    TITLE "0:"
    INDEX 01 15:58:34
  TRACK 498 AUDIO
    TITLE "4:cjc087_4891"
    INDEX 01 15:59:31
  TRACK 499 AUDIO
    TITLE "3:cjc087_4892"
    INDEX 01 16:00:52
  TRACK 500 AUDIO
    TITLE "0:"
    INDEX 01 16:02:14
  TRACK 501 AUDIO
    TITLE "4:cjc087_4893"
    INDEX 01 16:03:14
  TRACK 502 AUDIO
    TITLE "3:cjc087_4894"
    INDEX 01 16:06:02
  TRACK 503 AUDIO
    TITLE "0:"
    INDEX 01 16:08:62
  TRACK 504 AUDIO
    TITLE "4:cjc087_4895"
    INDEX 01 16:09:59
  TRACK 505 AUDIO
    TITLE "3:cjc087_4896"
    INDEX 01 16:11:60
  TRACK 506 AUDIO
    TITLE "0:"
    INDEX 01 16:14:47
  TRACK 507 AUDIO
    TITLE "4:cjc087_4897"
    INDEX 01 16:15:44
  TRACK 508 AUDIO
    TITLE "3:cjc087_4898"
    INDEX 01 16:18:19
  TRACK 509 AUDIO
    TITLE "0:"
    INDEX 01 16:21:37
  TRACK 510 AUDIO
    TITLE "4:cjc087_4899"
    INDEX 01 16:22:34
  TRACK 511 AUDIO
    TITLE "3:cjc087_4900"
    INDEX 01 16:24:00
  TRACK 512 AUDIO
    TITLE "0:"
    INDEX 01 16:26:44
  TRACK 513 AUDIO
    TITLE "4:cjc087_4901"
    INDEX 01 16:27:41
  TRACK 514 AUDIO
    TITLE "3:cjc087_4902"
    INDEX 01 16:29:29
  TRACK 515 AUDIO
    TITLE "0:"
    INDEX 01 16:31:53
  TRACK 516 AUDIO
    TITLE "2:cjc087_4903"
    INDEX 01 16:33:15
  TRACK 517 AUDIO
    TITLE "0:"
    INDEX 01 16:46:27
